<svg xmlns="http://www.w3.org/2000/svg" width="23.46" height="13.59" viewBox="0 0 23.46 13.59">
  <path id="Path_324" data-name="Path 324" d="M1803.16,237.661v-2.167h17.76v2.168Zm0,5.675v-2.164h17.76v2.168Zm0,5.676v-2.168h17.76v2.168Zm-4.58-11.319a1.075,1.075,0,0,1-.44-.082,1.1,1.1,0,0,1-.36-.252,1.25,1.25,0,0,1-.24-.361,1.221,1.221,0,0,1-.08-.424,1.061,1.061,0,0,1,.08-.431.947.947,0,0,1,.24-.366,1.045,1.045,0,0,1,.37-.241,1.093,1.093,0,0,1,.43-.078,1.116,1.116,0,1,1,0,2.232Zm0,5.676a1.132,1.132,0,0,1-.92-.5,1.155,1.155,0,0,1-.18-.508,1.079,1.079,0,0,1,.08-.533,1.116,1.116,0,0,1,.32-.433,1.178,1.178,0,0,1,.49-.232,1.166,1.166,0,0,1,.55.024,1.129,1.129,0,0,1,.46.273,1.162,1.162,0,0,1,.32.575,1.119,1.119,0,0,1-.07.651,1.068,1.068,0,0,1-.42.5A1.1,1.1,0,0,1,1798.58,243.369Zm0,5.675a1.116,1.116,0,1,1,.44-2.15,1.009,1.009,0,0,1,.36.253.943.943,0,0,1,.24.36,1.032,1.032,0,0,1,.08.425.919.919,0,0,1-.08.431.956.956,0,0,1-.24.366,1.045,1.045,0,0,1-.37.241,1.061,1.061,0,0,1-.43.078Z" transform="translate(-1797.46 -235.458)" fill="#5f6368"/>
</svg>
